<?xml version="1.0" standalone="no"?>
<!DOCTYPE svg PUBLIC "-//W3C//DTD SVG 20010904//EN"
 "http://www.w3.org/TR/2001/REC-SVG-20010904/DTD/svg10.dtd">
<svg version="1.0" xmlns="http://www.w3.org/2000/svg"
 width="530.000000pt" height="95.000000pt" viewBox="0 0 530.000000 95.000000"
 preserveAspectRatio="xMidYMid meet">

<g transform="translate(0.000000,95.000000) scale(0.100000,-0.100000)"
fill="#000000" stroke="none">
<path d="M240 883 c-40 -21 -80 -75 -80 -110 0 -13 9 -41 19 -61 47 -93 207
-98 261 -9 36 58 19 133 -39 173 -35 25 -120 28 -161 7z"/>
<path d="M3952 648 c2 -102 6 -143 16 -146 9 -3 12 30 12 142 0 124 -2 146
-15 146 -13 0 -15 -20 -13 -142z"/>
<path d="M1825 768 c-77 -45 -49 -158 39 -158 26 0 40 7 60 31 14 17 26 41 26
54 0 54 -79 100 -125 73z m83 -30 c6 -6 12 -24 12 -41 0 -60 -59 -88 -100 -47
-57 57 24 138 88 88z"/>
<path d="M1830 696 c0 -36 13 -48 24 -23 5 10 7 10 12 0 12 -26 32 -13 30 20
-1 28 -5 32 -34 35 -31 3 -32 2 -32 -32z m40 14 c0 -5 -4 -10 -10 -10 -5 0
-10 5 -10 10 0 6 5 10 10 10 6 0 10 -4 10 -10z"/>
<path d="M3330 760 c0 -11 7 -20 15 -20 8 0 15 9 15 20 0 11 -7 20 -15 20 -8
0 -15 -9 -15 -20z"/>
<path d="M4650 760 c0 -11 7 -20 15 -20 8 0 15 9 15 20 0 11 -7 20 -15 20 -8
0 -15 -9 -15 -20z"/>
<path d="M40 440 l0 -330 120 0 120 0 0 239 0 238 -44 17 c-55 21 -113 83
-122 130 -6 33 -9 36 -40 36 l-34 0 0 -330z"/>
<path d="M510 750 c0 -52 -69 -128 -134 -150 l-36 -12 0 -239 0 -239 120 0
120 0 0 330 0 330 -35 0 c-29 0 -35 -4 -35 -20z"/>
<path d="M630 440 l0 -330 243 0 243 0 66 158 c65 156 66 157 44 169 -11 7
-29 12 -38 13 -23 0 -24 20 -1 20 9 0 33 18 55 40 35 37 38 46 38 97 0 54 -2
59 -44 99 -60 57 -99 64 -376 64 l-230 0 0 -330z m404 179 c31 -25 34 -61 6
-89 -17 -17 -33 -20 -100 -20 l-80 0 0 65 0 65 74 0 c59 0 78 -4 100 -21z m25
-249 c44 -23 34 -92 -15 -110 -14 -6 -61 -10 -105 -10 l-79 0 0 71 0 72 89 -6
c50 -3 99 -11 110 -17z"/>
<path d="M1411 748 c-5 -13 -40 -97 -79 -188 -39 -91 -97 -228 -130 -305 l-59
-140 105 -3 c58 -1 111 -1 118 2 6 2 19 27 29 55 l17 51 132 0 132 0 18 -55
17 -55 119 0 120 0 -9 23 c-8 19 -71 167 -226 532 l-42 100 -127 3 c-123 3
-126 2 -135 -20z m174 -266 c19 -56 35 -107 35 -112 0 -6 -34 -10 -80 -10 -44
0 -80 2 -80 4 0 2 16 48 35 102 20 55 38 105 41 113 7 21 11 13 49 -97z"/>
<path d="M2200 634 c0 -104 3 -135 13 -132 8 3 13 42 15 136 2 113 0 132 -13
132 -13 0 -15 -21 -15 -136z"/>
<path d="M4130 635 c0 -113 2 -135 15 -135 13 0 15 22 15 135 0 113 -2 135
-15 135 -13 0 -15 -22 -15 -135z"/>
<path d="M2480 720 c0 -11 -7 -20 -15 -20 -8 0 -15 -7 -15 -15 0 -8 7 -15 15
-15 12 0 15 -15 15 -74 0 -77 12 -101 46 -94 26 5 29 28 5 28 -19 0 -21 6 -21
70 0 63 2 70 20 70 11 0 20 7 20 15 0 8 -9 15 -20 15 -13 0 -20 7 -20 20 0 11
-7 20 -15 20 -8 0 -15 -9 -15 -20z"/>
<path d="M3230 720 c0 -11 -7 -20 -15 -20 -8 0 -15 -7 -15 -15 0 -8 7 -15 15
-15 12 0 15 -15 15 -74 0 -77 12 -101 46 -94 26 5 29 28 5 28 -19 0 -21 6 -21
70 0 63 2 70 20 70 11 0 20 7 20 15 0 8 -9 15 -20 15 -13 0 -20 7 -20 20 0 11
-7 20 -15 20 -8 0 -15 -9 -15 -20z"/>
<path d="M4550 720 c0 -11 -7 -20 -15 -20 -8 0 -15 -7 -15 -15 0 -8 7 -15 15
-15 12 0 15 -15 15 -74 0 -77 12 -101 46 -94 26 5 29 28 5 28 -19 0 -21 6 -21
69 0 60 2 69 20 74 11 3 20 10 20 16 0 6 -9 11 -20 11 -13 0 -20 7 -20 20 0
11 -7 20 -15 20 -8 0 -15 -9 -15 -20z"/>
<path d="M4740 720 c0 -11 -7 -20 -15 -20 -8 0 -15 -7 -15 -15 0 -8 7 -15 15
-15 12 0 15 -14 15 -69 0 -51 4 -74 16 -86 19 -19 45 -16 52 5 3 8 1 12 -3 8
-19 -18 -35 17 -35 78 0 57 2 64 20 64 11 0 20 7 20 15 0 8 -9 15 -20 15 -13
0 -20 7 -20 20 0 11 -7 20 -15 20 -8 0 -15 -9 -15 -20z"/>
<path d="M5040 721 c0 -11 -9 -21 -21 -24 -23 -6 -17 -27 7 -27 11 0 14 -16
14 -73 0 -75 9 -97 41 -97 27 0 34 21 10 27 -19 5 -21 13 -21 74 0 53 3 69 14
69 24 0 30 21 7 27 -12 3 -21 13 -21 24 0 11 -7 19 -15 19 -8 0 -15 -8 -15
-19z"/>
<path d="M2282 603 c2 -66 7 -98 16 -101 9 -3 12 15 12 65 0 79 14 107 51 101
23 -3 24 -7 27 -86 2 -60 6 -82 15 -79 20 6 21 144 2 173 -18 28 -51 31 -77 7
-17 -15 -18 -15 -18 0 0 10 -7 17 -15 17 -13 0 -15 -15 -13 -97z"/>
<path d="M2591 674 c-31 -39 -29 -117 4 -149 26 -27 54 -31 86 -15 29 16 24
31 -7 19 -33 -12 -74 11 -74 41 0 18 7 20 56 20 l57 0 -6 36 c-12 74 -76 99
-116 48z m73 -10 c9 -8 16 -24 16 -35 0 -16 -7 -19 -40 -19 -33 0 -40 3 -40
19 0 20 24 51 40 51 5 0 16 -7 24 -16z"/>
<path d="M2749 693 c-6 -44 2 -188 10 -191 7 -2 11 19 11 57 0 70 15 111 42
111 10 0 18 7 18 15 0 18 -21 20 -39 3 -11 -10 -14 -10 -18 0 -5 13 -22 17
-24 5z"/>
<path d="M2860 599 c0 -76 3 -100 13 -97 7 3 14 33 17 84 l5 79 30 0 30 0 3
-82 c2 -65 6 -83 17 -83 22 0 21 162 -1 184 -19 19 -55 21 -73 4 -11 -10 -14
-10 -18 0 -14 37 -23 0 -23 -89z"/>
<path d="M3063 693 c-7 -2 -13 -11 -13 -19 0 -10 6 -11 26 -4 32 12 64 -3 64
-30 0 -16 -7 -20 -35 -20 -41 0 -75 -29 -75 -63 0 -28 28 -57 55 -57 10 0 27
7 37 17 17 15 18 15 18 0 0 -10 7 -17 15 -17 12 0 15 16 15 80 0 69 -3 82 -22
100 -20 19 -57 25 -85 13z m77 -118 c0 -33 -43 -63 -65 -45 -33 27 -10 70 37
70 23 0 28 -4 28 -25z"/>
<path d="M3330 600 c0 -82 3 -100 15 -100 12 0 15 18 15 100 0 82 -3 100 -15
100 -12 0 -15 -18 -15 -100z"/>
<path d="M3429 681 c-21 -16 -24 -28 -24 -81 0 -53 3 -65 24 -81 32 -26 67
-24 96 6 20 19 25 34 25 75 0 41 -5 56 -25 75 -29 30 -64 32 -96 6z m86 -81
c0 -43 -4 -55 -22 -67 -19 -13 -24 -12 -42 6 -14 14 -21 34 -21 61 0 27 7 47
21 61 18 18 23 19 42 6 18 -12 22 -24 22 -67z"/>
<path d="M3590 600 c0 -82 3 -100 15 -100 12 0 15 15 15 73 0 78 9 97 46 97
27 0 34 -23 34 -108 0 -46 3 -63 13 -60 16 6 22 125 8 162 -13 33 -36 42 -72
29 -16 -7 -29 -7 -29 -2 0 5 -7 9 -15 9 -12 0 -15 -18 -15 -100z"/>
<path d="M3790 685 c-18 -21 -8 -27 24 -15 22 8 30 6 47 -11 25 -25 17 -39
-22 -39 -40 0 -83 -42 -74 -73 14 -45 54 -59 93 -31 20 14 22 14 22 0 0 -9 5
-16 10 -16 6 0 10 35 10 84 0 76 -2 86 -22 100 -29 20 -72 20 -88 1z m82 -115
c-2 -22 -26 -50 -42 -50 -3 0 -15 6 -25 14 -17 12 -18 17 -7 41 10 22 18 26
45 23 28 -3 32 -6 29 -28z"/>
<path d="M4212 603 c2 -66 7 -98 16 -101 9 -3 12 16 12 70 0 79 9 98 46 98 28
0 34 -17 34 -102 0 -51 3 -69 13 -66 17 6 21 136 4 168 -15 30 -58 38 -81 15
-14 -15 -16 -15 -16 -1 0 9 -7 16 -15 16 -13 0 -15 -15 -13 -97z"/>
<path d="M4408 689 c-18 -10 -24 -55 -10 -75 4 -6 21 -17 37 -25 45 -21 41
-53 -7 -57 -42 -4 -50 -17 -17 -27 49 -16 97 22 84 66 -4 11 -24 31 -46 44
-25 17 -36 30 -33 40 6 15 11 17 46 19 10 1 19 6 20 11 4 14 -53 17 -74 4z"/>
<path d="M4650 599 c0 -76 3 -100 13 -97 8 3 13 35 15 101 2 82 0 97 -13 97
-12 0 -15 -17 -15 -101z"/>
<path d="M4840 617 c0 -69 3 -87 18 -100 23 -21 41 -21 70 -1 20 14 22 14 22
-1 0 -9 5 -15 11 -13 6 2 10 7 10 11 -1 4 -1 48 -1 97 0 53 -4 90 -10 90 -6 0
-10 -26 -10 -59 0 -84 -13 -113 -48 -109 -27 3 -27 4 -30 86 -2 64 -6 82 -17
82 -12 0 -15 -17 -15 -83z"/>
<path d="M5158 689 c-24 -13 -41 -81 -30 -121 11 -44 51 -72 91 -63 36 8 42
27 9 24 -45 -4 -56 1 -67 31 l-10 30 53 0 c29 0 55 2 58 6 10 10 -11 78 -28
91 -21 15 -52 16 -76 2z m68 -35 c21 -32 8 -47 -37 -42 -28 2 -33 7 -31 23 9
49 43 59 68 19z"/>
<path d="M2402 388 c-7 -7 -12 -29 -12 -50 0 -27 -4 -38 -15 -38 -8 0 -15 -4
-15 -10 0 -5 7 -10 15 -10 12 0 15 -16 15 -85 0 -69 3 -85 15 -85 12 0 15 16
15 85 0 69 3 85 15 85 8 0 15 5 15 10 0 6 -7 10 -15 10 -11 0 -15 11 -15 36 0
27 5 37 20 41 11 3 20 9 20 14 0 13 -44 11 -58 -3z"/>
<path d="M4456 393 c-3 -3 -6 -69 -6 -145 0 -116 2 -138 15 -138 13 0 15 22
15 139 0 127 -6 162 -24 144z"/>
<path d="M5038 383 c20 -4 22 -10 22 -59 0 -30 5 -54 10 -54 6 0 10 23 10 50
0 43 3 52 23 60 17 7 9 9 -33 8 -30 0 -45 -3 -32 -5z"/>
<path d="M5142 328 l1 -63 6 50 c6 53 11 52 30 -7 7 -21 16 -38 20 -38 4 0 15
21 23 48 l16 47 1 -47 c1 -71 21 -58 21 13 0 51 -3 60 -17 57 -10 -2 -21 -18
-26 -38 -13 -54 -23 -55 -37 -6 -19 70 -40 60 -38 -16z"/>
<path d="M2580 246 l0 -136 45 0 c80 0 123 72 74 121 -19 19 -19 22 -5 38 20
22 21 75 2 90 -8 6 -37 14 -65 18 l-51 6 0 -137z m88 92 c18 -18 14 -56 -7
-68 -40 -21 -51 -13 -51 35 0 40 2 45 23 45 13 0 28 -5 35 -12z m0 -114 c42
-29 23 -84 -30 -84 -27 0 -28 2 -28 50 0 55 15 64 58 34z"/>
<path d="M3090 365 c0 -8 7 -15 15 -15 8 0 15 7 15 15 0 8 -7 15 -15 15 -8 0
-15 -7 -15 -15z"/>
<path d="M3940 377 c0 -2 -20 -61 -45 -132 -25 -70 -43 -130 -41 -133 12 -11
34 9 39 37 6 30 8 31 62 31 54 0 56 -1 62 -31 5 -28 27 -48 38 -37 3 2 -15 63
-39 134 -30 90 -48 130 -59 132 -10 2 -17 2 -17 -1z m44 -122 l14 -45 -43 0
-44 0 10 33 c26 78 32 90 41 73 5 -9 15 -36 22 -61z"/>
<path d="M4820 365 c0 -8 9 -15 20 -15 11 0 20 7 20 15 0 8 -9 15 -20 15 -11
0 -20 -7 -20 -15z"/>
<path d="M2215 288 c-51 -45 -38 -159 19 -174 66 -16 115 38 102 116 -6 38
-45 80 -76 80 -10 0 -31 -10 -45 -22z m85 -43 c22 -67 -13 -130 -59 -106 -20
11 -35 67 -26 95 3 9 7 23 10 31 2 9 16 15 34 15 25 0 31 -6 41 -35z"/>
<path d="M2972 300 c-48 -20 -41 -77 13 -103 58 -28 40 -76 -22 -61 -19 5 -24
3 -21 -7 7 -21 72 -23 92 -4 32 33 18 72 -38 100 -11 6 -21 19 -21 30 0 15 8
21 33 23 34 3 42 16 16 26 -19 7 -23 7 -52 -4z"/>
<path d="M3217 293 c-11 -11 -17 -13 -17 -5 0 7 -7 12 -15 12 -12 0 -15 -17
-15 -95 0 -77 3 -95 15 -95 11 0 15 17 17 76 2 60 7 79 21 88 12 8 22 8 35 0
13 -9 18 -28 20 -88 2 -55 6 -76 15 -73 8 3 12 31 12 87 -1 69 -4 84 -20 96
-25 19 -47 18 -68 -3z"/>
<path d="M3376 288 c-24 -22 -31 -49 -28 -110 3 -52 61 -83 116 -62 26 10 7
24 -24 17 -36 -7 -60 10 -60 43 0 22 4 24 54 24 58 0 55 -4 42 61 -3 15 -17
31 -31 37 -35 16 -40 15 -69 -10z m77 -37 c6 -26 0 -31 -40 -31 -28 0 -33 3
-33 25 0 47 61 52 73 6z"/>
<path d="M3543 300 c-12 -5 -25 -21 -29 -36 -6 -22 -2 -31 15 -43 69 -49 75
-56 57 -74 -12 -11 -26 -15 -46 -10 -38 7 -41 -14 -4 -23 86 -22 118 71 39
109 -46 22 -45 51 3 55 20 2 32 8 29 15 -5 15 -36 19 -64 7z"/>
<path d="M3683 300 c-12 -5 -25 -21 -29 -36 -6 -22 -2 -31 15 -43 12 -9 34
-25 48 -37 24 -19 25 -21 8 -38 -12 -12 -26 -15 -46 -11 -37 8 -39 -12 -3 -21
86 -22 118 71 39 109 -46 22 -45 51 3 55 20 2 32 8 29 15 -5 15 -36 19 -64 7z"/>
<path d="M4132 294 c-12 -8 -22 -10 -22 -5 0 6 -4 11 -10 11 -6 0 -10 -38 -10
-95 0 -78 3 -95 15 -95 12 0 15 15 15 74 0 78 12 101 47 94 15 -3 19 -16 23
-82 3 -51 10 -81 18 -84 9 -3 12 18 12 82 0 76 -2 86 -22 100 -12 9 -27 16
-33 16 -6 0 -21 -7 -33 -16z"/>
<path d="M4298 299 c-29 -17 -20 -26 25 -25 35 1 42 -2 45 -20 2 -17 -3 -22
-34 -27 -65 -11 -96 -64 -58 -101 18 -18 65 -21 81 -5 8 8 13 8 17 0 17 -27
26 -5 26 67 0 83 -4 93 -37 111 -26 13 -42 14 -65 0z m72 -113 c0 -43 -42 -70
-68 -44 -26 26 1 68 44 68 19 0 24 -5 24 -24z"/>
<path d="M4703 300 c-12 -5 -25 -21 -29 -36 -6 -22 -2 -31 15 -43 12 -9 34
-26 49 -39 26 -21 26 -23 8 -37 -11 -8 -29 -12 -47 -8 -18 3 -29 1 -29 -6 0
-16 49 -25 79 -15 21 8 27 17 29 46 3 34 0 39 -38 58 -51 26 -51 53 -2 58 20
2 32 8 29 15 -5 15 -36 19 -64 7z"/>
<path d="M4922 294 c-14 -10 -22 -25 -22 -44 0 -24 7 -33 40 -50 22 -11 40
-27 40 -35 0 -18 -34 -37 -54 -29 -22 8 -42 -6 -25 -17 29 -18 78 -10 95 16
21 33 10 62 -32 82 -24 12 -34 23 -34 40 0 20 5 23 35 23 36 0 47 13 19 24
-24 9 -38 7 -62 -10z"/>
<path d="M2770 217 c0 -51 5 -88 12 -95 15 -15 60 -16 75 -1 8 8 13 8 17 0 18
-29 26 -3 26 84 0 77 -3 95 -15 95 -11 0 -15 -17 -17 -76 -3 -67 -6 -78 -24
-84 -39 -15 -49 3 -49 85 0 53 -4 75 -12 75 -9 0 -13 -23 -13 -83z"/>
<path d="M3090 205 c0 -78 3 -95 15 -95 12 0 15 17 15 95 0 78 -3 95 -15 95
-12 0 -15 -17 -15 -95z"/>
<path d="M4512 288 c38 -102 57 -188 48 -212 -5 -14 -16 -26 -25 -26 -8 0 -15
-5 -15 -11 0 -6 12 -9 28 -7 25 3 29 10 64 123 41 136 43 145 25 145 -7 0 -21
-32 -33 -77 l-20 -78 -12 35 c-6 19 -16 54 -22 78 -7 27 -16 42 -26 42 -9 0
-14 -6 -12 -12z"/>
<path d="M4830 205 c0 -57 4 -95 10 -95 6 0 10 38 10 95 0 57 -4 95 -10 95 -6
0 -10 -38 -10 -95z"/>
</g>
</svg>
